<?xml version="1.0" encoding="UTF-8" standalone="no"?>
<svg
   xmlns:dc="http://purl.org/dc/elements/1.1/"
   xmlns:cc="http://creativecommons.org/ns#"
   xmlns:rdf="http://www.w3.org/1999/02/22-rdf-syntax-ns#"
   xmlns:svg="http://www.w3.org/2000/svg"
   xmlns="http://www.w3.org/2000/svg"
   xmlns:sodipodi="http://sodipodi.sourceforge.net/DTD/sodipodi-0.dtd"
   xmlns:inkscape="http://www.inkscape.org/namespaces/inkscape"
   version="1.1"
   id="Layer_1"
   x="0px"
   y="0px"
   viewBox="0 0 512.003 512.003"
   style="enable-background:new 0 0 512.003 512.003;"
   xml:space="preserve"
   sodipodi:docname="line-chart-line-graph-svgrepo-com.svg"
   inkscape:version="1.0.1 (3bc2e813f5, 2020-09-07)"><metadata
   id="metadata43"><rdf:RDF><cc:Work
       rdf:about=""><dc:format>image/svg+xml</dc:format><dc:type
         rdf:resource="http://purl.org/dc/dcmitype/StillImage" /></cc:Work></rdf:RDF></metadata><defs
   id="defs41" /><sodipodi:namedview
   pagecolor="#ffffff"
   bordercolor="#666666"
   borderopacity="1"
   objecttolerance="10"
   gridtolerance="10"
   guidetolerance="10"
   inkscape:pageopacity="0"
   inkscape:pageshadow="2"
   inkscape:window-width="1920"
   inkscape:window-height="1018"
   id="namedview39"
   showgrid="false"
   inkscape:zoom="0.83007328"
   inkscape:cx="256.0015"
   inkscape:cy="256.0015"
   inkscape:window-x="-8"
   inkscape:window-y="-8"
   inkscape:window-maximized="1"
   inkscape:current-layer="Layer_1" />
<path
   style="fill:#F77935;"
   d="M503.187,81.861c-4.012-0.793-8.018,1.38-9.548,5.171l-39.929,98.955l-34.662-36.981  c-2.075-2.214-5.174-3.157-8.129-2.476c-2.957,0.682-5.329,2.885-6.226,5.784l-48.352,156.29l-19.445-24.206  c-1.536-1.911-3.82-3.068-6.27-3.175c-2.45-0.11-4.826,0.846-6.523,2.615l-24.949,26.021l-38.003-132.095  c-1.026-3.566-4.242-6.058-7.952-6.16c-3.674-0.091-7.059,2.207-8.28,5.711l-42.893,123.001l-25.196-17.328  c-1.923-1.322-4.304-1.796-6.59-1.315c-2.284,0.483-4.27,1.881-5.494,3.869l-40.625,65.993l-59.784-12.958  c-4.359-0.945-8.705,1.629-9.973,5.903L10.578,492.061c-0.765,2.578-0.268,5.365,1.34,7.52c1.609,2.154,4.14,3.424,6.827,3.424  H499.31c4.687,0,8.494-3.786,8.52-8.473l2.229-404.264C510.082,86.179,507.197,82.651,503.187,81.861z"
   id="path2" />


<g
   id="g8">
</g>
<g
   id="g10">
</g>
<g
   id="g12">
</g>
<g
   id="g14">
</g>
<g
   id="g16">
</g>
<g
   id="g18">
</g>
<g
   id="g20">
</g>
<g
   id="g22">
</g>
<g
   id="g24">
</g>
<g
   id="g26">
</g>
<g
   id="g28">
</g>
<g
   id="g30">
</g>
<g
   id="g32">
</g>
<g
   id="g34">
</g>
<g
   id="g36">
</g>
</svg>
