<?xml version="1.0" encoding="UTF-8" standalone="no"?>
<svg
   xmlns:dc="http://purl.org/dc/elements/1.1/"
   xmlns:cc="http://creativecommons.org/ns#"
   xmlns:rdf="http://www.w3.org/1999/02/22-rdf-syntax-ns#"
   xmlns:svg="http://www.w3.org/2000/svg"
   xmlns="http://www.w3.org/2000/svg"
   xmlns:xlink="http://www.w3.org/1999/xlink"
   xmlns:sodipodi="http://sodipodi.sourceforge.net/DTD/sodipodi-0.dtd"
   xmlns:inkscape="http://www.inkscape.org/namespaces/inkscape"
   id="svg97"
   height="38.117107"
   width="45.93758"
   version="1.0"
   sodipodi:docname="folder-bc.svg"
   inkscape:version="1.0.1 (3bc2e813f5, 2020-09-07)">
  <metadata
     id="metadata57">
    <rdf:RDF>
      <cc:Work
         rdf:about="">
        <dc:format>image/svg+xml</dc:format>
        <dc:type
           rdf:resource="http://purl.org/dc/dcmitype/StillImage" />
        <dc:title />
      </cc:Work>
    </rdf:RDF>
  </metadata>
  <sodipodi:namedview
     pagecolor="#ffffff"
     bordercolor="#666666"
     borderopacity="1"
     objecttolerance="10"
     gridtolerance="10"
     guidetolerance="10"
     inkscape:pageopacity="0"
     inkscape:pageshadow="2"
     inkscape:window-width="1920"
     inkscape:window-height="1018"
     id="namedview55"
     showgrid="false"
     inkscape:zoom="17.708333"
     inkscape:cx="23.708933"
     inkscape:cy="23.427147"
     inkscape:window-x="-8"
     inkscape:window-y="-8"
     inkscape:window-maximized="1"
     inkscape:current-layer="svg97"
     inkscape:document-rotation="0"
     fit-margin-top="0"
     fit-margin-left="0"
     fit-margin-right="0"
     fit-margin-bottom="0" />
  <defs
     id="defs3">
    <rect
       x="6.2682352"
       y="11.350588"
       width="41.392941"
       height="33.825882"
       id="rect890" />
    <radialGradient
       id="radialGradient6719"
       xlink:href="#linearGradient5060"
       gradientUnits="userSpaceOnUse"
       cy="486.64999"
       cx="605.71002"
       gradientTransform="matrix(-2.7744,0,0,1.9697,112.76,-872.89)"
       r="117.14" />
    <linearGradient
       id="linearGradient5060">
      <stop
         id="stop5062"
         offset="0" />
      <stop
         id="stop5064"
         stop-opacity="0"
         offset="1" />
    </linearGradient>
    <radialGradient
       id="radialGradient6717"
       xlink:href="#linearGradient5060"
       gradientUnits="userSpaceOnUse"
       cy="486.64999"
       cx="605.71002"
       gradientTransform="matrix(2.7744,0,0,1.9697,-1891.6,-872.89)"
       r="117.14" />
    <linearGradient
       id="linearGradient6715"
       y2="609.51001"
       gradientUnits="userSpaceOnUse"
       x2="302.85999"
       gradientTransform="matrix(2.7744,0,0,1.9697,-1892.2,-872.89)"
       y1="366.64999"
       x1="302.85999">
      <stop
         id="stop5050"
         stop-opacity="0"
         offset="0" />
      <stop
         id="stop5056"
         offset=".5" />
      <stop
         id="stop5052"
         stop-opacity="0"
         offset="1" />
    </linearGradient>
    <radialGradient
       id="radialGradient238"
       gradientUnits="userSpaceOnUse"
       cy="37.518002"
       cx="20.705999"
       gradientTransform="matrix(1.055,-0.027345,0.1777,1.1909,-3.8632672,-12.2158)"
       r="30.905001">
      <stop
         id="stop1790"
         stop-color="#202020"
         offset="0" />
      <stop
         id="stop1791"
         stop-color="#b9b9b9"
         offset="1" />
    </radialGradient>
    <linearGradient
       id="linearGradient491"
       y2="66.834"
       gradientUnits="userSpaceOnUse"
       x2="9.8980999"
       gradientTransform="matrix(1.5168,0,0,0.70898,-1.1706372,-6.4087)"
       y1="13.773"
       x1="6.2298002">
      <stop
         id="stop3984"
         stop-color="#fff"
         stop-opacity=".87629"
         offset="0" />
      <stop
         id="stop3985"
         stop-color="#fffffe"
         stop-opacity="0"
         offset="1" />
    </linearGradient>
    <linearGradient
       id="linearGradient322"
       y2="46.688999"
       gradientUnits="userSpaceOnUse"
       x2="12.854"
       gradientTransform="matrix(1.3175,0,0,0.81626,-1.1706372,-6.4087)"
       y1="32.567001"
       x1="13.036">
      <stop
         id="stop320"
         stop-color="#fff"
         offset="0" />
      <stop
         id="stop321"
         stop-color="#fff"
         stop-opacity="0"
         offset="1" />
    </linearGradient>
    <linearGradient
       id="linearGradient3104"
       y2="6.1803002"
       gradientUnits="userSpaceOnUse"
       x2="15.515"
       y1="31.368"
       x1="18.113001"
       gradientTransform="translate(-0.2910672,-5.0905)">
      <stop
         id="stop3098"
         stop-color="#424242"
         offset="0" />
      <stop
         id="stop3100"
         stop-color="#777"
         offset="1" />
    </linearGradient>
    <linearGradient
       id="linearGradient9772"
       y2="32.049999"
       gradientUnits="userSpaceOnUse"
       x2="22.065001"
       y1="36.987999"
       x1="22.176001"
       gradientTransform="translate(-0.2910672,-5.0905)">
      <stop
         id="stop9768"
         stop-color="#6194cb"
         offset="0" />
      <stop
         id="stop9770"
         stop-color="#729fcf"
         offset="1" />
    </linearGradient>
  </defs>
  <g
     id="g6707"
     transform="matrix(0.022624,0,0,0.020868,43.091933,31.2795)">
    <rect
       id="rect6709"
       opacity="0.40206"
       height="478.35999"
       width="1339.6"
       y="-150.7"
       x="-1559.3"
       fill="url(#linearGradient6715)"
       style="fill:url(#linearGradient6715)" />
    <path
       id="path6711"
       opacity="0.40206"
       d="m -219.62,-150.68 v 478.33 c 142.88,0.9 345.4,-107.17 345.4,-239.2 0,-132.02 -159.44,-239.13 -345.4,-239.13 z"
       fill="url(#radialGradient6717)"
       style="fill:url(#radialGradient6717)" />
    <path
       id="path6713"
       opacity="0.40206"
       d="m -1559.3,-150.68 v 478.33 c -142.8,0.9 -345.4,-107.17 -345.4,-239.2 0,-132.02 159.5,-239.13 345.4,-239.13 z"
       fill="url(#radialGradient6719)"
       style="fill:url(#radialGradient6719)" />
  </g>
  <path
     id="path216"
     stroke-linejoin="round"
     d="m 4.2307328,33.5965 c 0.0218,0.417 0.4599,0.833 0.8762,0.833 H 36.433933 c 0.416,0 0.811,-0.416 0.789,-0.833 l -0.936,-27.226 c -0.022,-0.417 -0.46,-0.833 -0.877,-0.833 h -13.27 c -0.486,0 -1.235,-0.316 -1.402,-1.1066 l -0.612,-2.893 C 19.970933,0.8022 19.243933,0.5 18.827933,0.5 H 4.0489328 c -0.4162,0 -0.8107,0.4163 -0.7889,0.8326 l 0.9707,32.264 z"
     stroke="url(#linearGradient3104)"
     stroke-linecap="round"
     fill="url(#radialGradient238)"
     style="fill:url(#radialGradient238);stroke:url(#linearGradient3104)" />
  <path
     id="path9788"
     opacity="0.11364"
     stroke-linejoin="round"
     d="M 4.9355328,17.4715 H 35.200533"
     stroke="#000000"
     stroke-linecap="round"
     fill="#729fcf" />
  <path
     id="path9784"
     opacity="0.11364"
     stroke-linejoin="round"
     d="M 4.7511328,13.4715 H 35.198133"
     stroke="#000000"
     stroke-linecap="round"
     fill="#729fcf" />
  <path
     id="path9778"
     opacity="0.11364"
     stroke-linejoin="round"
     d="M 4.6896328,7.4715 H 35.196633"
     stroke="#000000"
     stroke-linecap="round"
     fill="#729fcf" />
  <path
     id="path9798"
     opacity="0.11364"
     stroke-linejoin="round"
     d="M 5.0951328,27.4715 H 35.204133"
     stroke="#000000"
     stroke-linecap="round"
     fill="#729fcf" />
  <path
     id="path9800"
     opacity="0.11364"
     stroke-linejoin="round"
     d="M 5.2180328,29.4715 H 35.206033"
     stroke="#000000"
     stroke-linecap="round"
     fill="#729fcf" />
  <path
     id="path9782"
     opacity="0.11364"
     stroke-linejoin="round"
     d="M 4.7511328,11.4715 H 35.198133"
     stroke="#000000"
     stroke-linecap="round"
     fill="#729fcf" />
  <path
     id="path9780"
     opacity="0.11364"
     stroke-linejoin="round"
     d="M 4.7203328,9.4715 H 35.198333"
     stroke="#000000"
     stroke-linecap="round"
     fill="#729fcf" />
  <path
     id="path9776"
     opacity="0.11364"
     stroke-linejoin="round"
     d="M 4.6310328,5.4715 H 19.912033"
     stroke="#000000"
     stroke-linecap="round"
     fill="#729fcf" />
  <path
     id="path9774"
     opacity="0.11364"
     stroke-linejoin="round"
     d="M 4.5827328,3.472 H 19.365733"
     stroke="#000000"
     stroke-linecap="round"
     fill="#729fcf" />
  <path
     id="path9794"
     opacity="0.11364"
     stroke-linejoin="round"
     d="M 5.0336328,23.4715 H 35.202633"
     stroke="#000000"
     stroke-linecap="round"
     fill="#729fcf" />
  <path
     id="path9792"
     opacity="0.11364"
     stroke-linejoin="round"
     d="M 4.9970328,21.4715 H 35.202033"
     stroke="#000000"
     stroke-linecap="round"
     fill="#729fcf" />
  <path
     id="path9790"
     opacity="0.11364"
     stroke-linejoin="round"
     d="M 4.9355328,19.4715 H 35.200533"
     stroke="#000000"
     stroke-linecap="round"
     fill="#729fcf" />
  <path
     id="path9786"
     opacity="0.11364"
     stroke-linejoin="round"
     d="M 4.9048328,15.4715 H 35.200833"
     stroke="#000000"
     stroke-linecap="round"
     fill="#729fcf" />
  <path
     id="path9796"
     opacity="0.11364"
     stroke-linejoin="round"
     d="M 5.0336328,25.4715 H 35.202633"
     stroke="#000000"
     stroke-linecap="round"
     fill="#729fcf" />
  <path
     id="path9802"
     opacity="0.11364"
     stroke-linejoin="round"
     d="M 5.2180328,31.4715 H 35.206033"
     stroke="#000000"
     stroke-linecap="round"
     fill="#729fcf" />
  <path
     id="path219"
     opacity="0.45143"
     d="m 5.7772328,33.7735 c 0.0164,0.312 -0.1809,0.52 -0.4985,0.416 -0.3177,-0.104 -0.5368,-0.312 -0.5531,-0.624 l -0.9477,-32.065 c -0.0164,-0.3118 0.1651,-0.5004 0.4774,-0.5004 L 18.677333,0.9524 c 0.313,0 0.932,0.3005 1.133,1.3222 l 0.574,2.8159 c -0.427,-0.4656 -0.419,-0.48 -0.638,-1.1571 l -0.406,-1.2592 c -0.219,-0.7276 -0.698,-0.8319 -1.01,-0.8319 H 5.4423328 c -0.3122,0 -0.5095,0.2082 -0.4931,0.5204 l 0.938,31.515 -0.1096,-0.104 z"
     display="block"
     fill="url(#linearGradient491)"
     style="fill:url(#linearGradient491)" />
  <g
     id="g220"
     fill-opacity="0.75706"
     transform="matrix(1.0408,0,0.054493,1.0408,-8.9612672,-2.4199)"
     fill="#ffffff">
    <path
       id="path221"
       fill-opacity="0.50847"
       fill="#ffffff"
       d="M 42.417,8.5152 C 42.422,8.4181 42.289,8.2682 42.182,8.2682 L 29.151,8.2661 c 0,0 0.911,0.5879 2.201,0.5962 l 11.054,0.071 c 0.011,-0.2117 0.003,-0.256 0.011,-0.4181 z" />
  </g>
  <path
     id="path233"
     stroke-linejoin="round"
     d="m 39.492933,34.4205 c 1.143,-0.044 1.963,-1.097 2.047,-2.321 0.791,-11.549 1.659,-21.232 1.659,-21.232 0.072,-0.248 -0.168,-0.495 -0.48,-0.495 H 8.3479328 c -4e-4,0 -1.8507,21.867 -1.8507,21.867 -0.1145,0.982 -0.466,1.804 -1.5498,2.183 l 34.5460002,-0.002 z"
     display="block"
     stroke="#3465a4"
     fill="url(#linearGradient9772)"
     style="fill:url(#linearGradient9772)" />
  <path
     id="path304"
     opacity="0.46591"
     d="m 9.3291328,11.3735 32.7910002,0.065 -1.574,20.002 c -0.084,1.071 -0.45,1.428 -1.872,1.428 -1.872,0 -28.6780002,-0.032 -31.3950002,-0.032 0.2335,-0.321 0.3337,-0.989 0.335,-1.005 l 1.7152,-20.458 z"
     stroke="url(#linearGradient322)"
     stroke-linecap="round"
     stroke-width="1px"
     fill="none"
     style="stroke:url(#linearGradient322)" />
  <path
     id="path323"
     d="m 9.3291328,11.1325 -1.1666,15.643 c 0,0 8.2964002,-4.148 18.6660002,-4.148 10.3696,0 15.555,-11.495 15.555,-11.495 H 9.3285328 Z"
     fill-opacity="0.089286"
     fill-rule="evenodd"
     fill="#ffffff" />
  <g
     id="g884"
     transform="translate(-2.2713194,-3.5457738)"
     style="fill:#000000;fill-opacity:1;stroke:#000000;stroke-opacity:1">
    <path
       d="M 13.273113,29.285329 V 15.923326 h 5.01303 q 1.531253,0 2.451827,0.410157 0.929689,0.401042 1.449222,1.2487 0.528646,0.838543 0.528646,1.759117 0,0.856773 -0.464844,1.613285 -0.464845,0.756511 -1.403648,1.221356 1.212241,0.355469 1.859378,1.212242 0.656251,0.856772 0.656251,2.023441 0,0.938804 -0.401042,1.750003 -0.391928,0.802085 -0.975263,1.239586 -0.583334,0.4375 -1.46745,0.665365 -0.875002,0.218751 -2.151046,0.218751 z m 1.768232,-7.74741 h 2.889329 q 1.175783,0 1.686201,-0.154948 0.67448,-0.200521 1.01172,-0.665366 0.346355,-0.464845 0.346355,-1.166669 0,-0.665366 -0.319011,-1.166669 -0.319011,-0.510417 -0.91146,-0.692709 -0.592449,-0.191407 -2.032556,-0.191407 h -2.670578 z m 0,6.170584 h 3.326829 q 0.856773,0 1.203128,-0.0638 0.610678,-0.109375 1.020835,-0.364584 0.410157,-0.255209 0.67448,-0.738283 0.264323,-0.492188 0.264323,-1.13021 0,-0.747397 -0.382813,-1.294273 -0.382813,-0.555991 -1.066408,-0.774741 -0.67448,-0.227865 -1.950524,-0.227865 h -3.08985 z"
       style="font-style:normal;font-variant:normal;font-weight:normal;font-stretch:normal;font-size:18.6667px;line-height:125%;font-family:Arial;-inkscape-font-specification:Arial;letter-spacing:0px;word-spacing:0px;white-space:pre;fill:#000000;fill-opacity:1;stroke:#000000;stroke-width:1px;stroke-linecap:butt;stroke-linejoin:miter;stroke-opacity:1"
       id="path2656" />
    <path
       d="m 35.330445,24.600425 1.768232,0.446615 q -0.555991,2.178389 -2.005212,3.326829 -1.440107,1.139325 -3.52735,1.139325 -2.16016,0 -3.518236,-0.875002 -1.34896,-0.884116 -2.059899,-2.552088 -0.701824,-1.667971 -0.701824,-3.582037 0,-2.087244 0.79297,-3.636726 0.802085,-1.558596 2.269535,-2.360681 1.476565,-0.811199 3.244798,-0.811199 2.005212,0 3.372402,1.020835 1.36719,1.020835 1.904951,2.871099 l -1.740889,0.410157 Q 34.665079,18.539216 33.780963,17.87385 32.896847,17.208484 31.557,17.208484 q -1.540367,0 -2.579431,0.738283 -1.02995,0.738282 -1.449222,1.986982 -0.419271,1.239586 -0.419271,2.561203 0,1.70443 0.492188,2.980474 0.501303,1.266929 1.549482,1.895837 1.048179,0.628907 2.269535,0.628907 1.48568,0 2.51563,-0.856772 1.02995,-0.856773 1.394534,-2.542973 z"
       style="font-style:normal;font-variant:normal;font-weight:normal;font-stretch:normal;font-size:18.6667px;line-height:125%;font-family:Arial;-inkscape-font-specification:Arial;letter-spacing:0px;word-spacing:0px;white-space:pre;fill:#000000;fill-opacity:1;stroke:#000000;stroke-width:1px;stroke-linecap:butt;stroke-linejoin:miter;stroke-opacity:1"
       id="path2658" />
  </g>
</svg>
