<?xml version="1.0" encoding="UTF-8" standalone="no"?>
<svg
   xmlns:dc="http://purl.org/dc/elements/1.1/"
   xmlns:cc="http://creativecommons.org/ns#"
   xmlns:rdf="http://www.w3.org/1999/02/22-rdf-syntax-ns#"
   xmlns:svg="http://www.w3.org/2000/svg"
   xmlns="http://www.w3.org/2000/svg"
   xmlns:sodipodi="http://sodipodi.sourceforge.net/DTD/sodipodi-0.dtd"
   xmlns:inkscape="http://www.inkscape.org/namespaces/inkscape"
   version="1.1"
   id="svg7854"
   inkscape:output_extension="org.inkscape.output.svg.inkscape"
   inkscape:export-filename="/home/lapo/Icone/gnome-icon-theme/32x32/status/media-playlist-repeat.png"
   inkscape:export-xdpi="90"
   sodipodi:docname="repeat.svg"
   sodipodi:version="0.32"
   inkscape:version="1.0.1 (3bc2e813f5, 2020-09-07)"
   inkscape:export-ydpi="90"
   x="0px"
   y="0px"
   width="35"
   height="29"
   viewBox="6.5 9.5 35 29"
   enable-background="new 6.5 9.5 35 29"
   xml:space="preserve"><metadata
   id="metadata203"><rdf:RDF><cc:Work
       rdf:about=""><dc:format>image/svg+xml</dc:format><dc:type
         rdf:resource="http://purl.org/dc/dcmitype/StillImage" /><dc:title /></cc:Work></rdf:RDF></metadata><defs
   id="defs201">
	
		<linearGradient
   id="SVGID_9_"
   gradientUnits="userSpaceOnUse"
   x1="-1097.9995"
   y1="800.25677"
   x2="-1097.9995"
   y2="787.62378"
   gradientTransform="matrix(-1,0,0,1,-1063.5,-769.9961)">
		<stop
   offset="0"
   style="stop-color:#000000;stop-opacity:0.2353"
   id="stop100" />
		<stop
   offset="1"
   style="stop-color:#FFFFFF"
   id="stop102" />
	</linearGradient>
	
	
		<linearGradient
   id="SVGID_10_"
   gradientUnits="userSpaceOnUse"
   x1="-1080.4995"
   y1="800.13568"
   x2="-1080.4995"
   y2="785.44427"
   gradientTransform="matrix(-1,0,0,1,-1063.5,-769.9961)">
		<stop
   offset="0"
   style="stop-color:#000000;stop-opacity:0.2353"
   id="stop107" />
		<stop
   offset="1"
   style="stop-color:#FFFFFF"
   id="stop109" />
	</linearGradient>
	
	
		<linearGradient
   id="SVGID_11_"
   gradientUnits="userSpaceOnUse"
   x1="-1082.4995"
   y1="796.65723"
   x2="-1082.4995"
   y2="786.49902"
   gradientTransform="matrix(-1,0,0,1,-1063.5,-769.9961)">
		<stop
   offset="0"
   style="stop-color:#FFFFFF"
   id="stop114" />
		<stop
   offset="0.5208"
   style="stop-color:#000000;stop-opacity:0.2353"
   id="stop116" />
		<stop
   offset="0.8003"
   style="stop-color:#000000;stop-opacity:0.2353"
   id="stop118" />
		<stop
   offset="1"
   style="stop-color:#FFFFFF"
   id="stop120" />
	</linearGradient>
	
	
		<linearGradient
   id="SVGID_12_"
   gradientUnits="userSpaceOnUse"
   x1="-1095.9995"
   y1="796.65723"
   x2="-1095.9995"
   y2="786.49902"
   gradientTransform="matrix(-1,0,0,1,-1063.5,-769.9961)">
		<stop
   offset="0"
   style="stop-color:#FFFFFF"
   id="stop125" />
		<stop
   offset="0.5208"
   style="stop-color:#000000;stop-opacity:0.2353"
   id="stop127" />
		<stop
   offset="0.8003"
   style="stop-color:#000000;stop-opacity:0.2353"
   id="stop129" />
		<stop
   offset="1"
   style="stop-color:#FFFFFF"
   id="stop131" />
	</linearGradient>
	
	
		<linearGradient
   id="SVGID_13_"
   gradientUnits="userSpaceOnUse"
   x1="-887.41357"
   y1="611.79883"
   x2="-887.41357"
   y2="622.64447"
   gradientTransform="matrix(-3.7501,0,0,1.7575,-3293.3855,-1060.7954)">
		<stop
   offset="0"
   style="stop-color:#EEEEEC"
   id="stop136" />
		<stop
   offset="1"
   style="stop-color:#808080"
   id="stop138" />
	</linearGradient>
	
		
	
		<linearGradient
   id="SVGID_14_"
   gradientUnits="userSpaceOnUse"
   x1="-882.74658"
   y1="622.64551"
   x2="-882.74658"
   y2="610.12793"
   gradientTransform="matrix(-3.7501,0,0,1.7575,-3293.3855,-1060.7954)">
		<stop
   offset="0"
   style="stop-color:#92948F"
   id="stop143" />
		<stop
   offset="1"
   style="stop-color:#EEEEEC"
   id="stop145" />
	</linearGradient>
	
		
	
		
	
		
	
		<linearGradient
   id="SVGID_15_"
   gradientUnits="userSpaceOnUse"
   x1="-1109.1177"
   y1="786.92291"
   x2="-1084.7943"
   y2="800.31299"
   gradientTransform="matrix(-1,0,0,1,-1063.5,-769.9961)">
		<stop
   offset="0"
   style="stop-color:#FFFFFF"
   id="stop154" />
		<stop
   offset="0.2097"
   style="stop-color:#FFFFFF;stop-opacity:0"
   id="stop156" />
		<stop
   offset="0.3494"
   style="stop-color:#FFFFFF;stop-opacity:0.8107"
   id="stop158" />
		<stop
   offset="0.4285"
   style="stop-color:#FFFFFF;stop-opacity:0"
   id="stop160" />
		<stop
   offset="0.5213"
   style="stop-color:#FFFFFF"
   id="stop162" />
		<stop
   offset="0.5575"
   style="stop-color:#FFFFFF;stop-opacity:0"
   id="stop164" />
		<stop
   offset="0.71"
   style="stop-color:#FFFFFF;stop-opacity:0.568"
   id="stop166" />
		<stop
   offset="0.7439"
   style="stop-color:#FFFFFF;stop-opacity:0"
   id="stop168" />
		<stop
   offset="1"
   style="stop-color:#FFFFFF;stop-opacity:0"
   id="stop170" />
	</linearGradient>
	
		
	
		<linearGradient
   id="SVGID_16_"
   gradientUnits="userSpaceOnUse"
   x1="-1098.874"
   y1="781.61328"
   x2="-1054.6606"
   y2="805.95312"
   gradientTransform="matrix(-1,0,0,1,-1063.5,-769.9961)">
		<stop
   offset="0"
   style="stop-color:#FFFFFF"
   id="stop175" />
		<stop
   offset="0.2097"
   style="stop-color:#FFFFFF;stop-opacity:0"
   id="stop177" />
		<stop
   offset="0.3494"
   style="stop-color:#FFFFFF;stop-opacity:0.8107"
   id="stop179" />
		<stop
   offset="0.4285"
   style="stop-color:#FFFFFF;stop-opacity:0"
   id="stop181" />
		<stop
   offset="0.5213"
   style="stop-color:#FFFFFF"
   id="stop183" />
		<stop
   offset="0.5575"
   style="stop-color:#FFFFFF;stop-opacity:0"
   id="stop185" />
		<stop
   offset="0.71"
   style="stop-color:#FFFFFF;stop-opacity:0.568"
   id="stop187" />
		<stop
   offset="0.7439"
   style="stop-color:#FFFFFF;stop-opacity:0"
   id="stop189" />
		<stop
   offset="1"
   style="stop-color:#FFFFFF;stop-opacity:0"
   id="stop191" />
	</linearGradient>
	
		
</defs><sodipodi:namedview
   pagecolor="#ffffff"
   bordercolor="#ffffff"
   borderopacity="1"
   objecttolerance="10"
   gridtolerance="10"
   guidetolerance="10"
   inkscape:pageopacity="0"
   inkscape:pageshadow="2"
   inkscape:window-width="1920"
   inkscape:window-height="1018"
   id="namedview199"
   showgrid="false"
   inkscape:zoom="8"
   inkscape:cx="17.5"
   inkscape:cy="15.869863"
   inkscape:window-x="-8"
   inkscape:window-y="-8"
   inkscape:window-maximized="1"
   inkscape:current-layer="svg7854"
   inkscape:document-rotation="0"
   inkscape:pagecheckerboard="false"
   inkscape:showpageshadow="false"
   showborder="false" />

<path
   inkscape:radius="-0.90625"
   inkscape:original="M 13.5 14.5 C 10.764102 14.5 8.5 16.764102 8.5 19.5 L 8.5 28.5625 C 8.5 31.298398 10.764102 33.5625 13.5 33.5625 L 18.5 33.5625 L 18.5 29.5625 L 13.5 29.5625 C 12.910913 29.5625 12.5 29.151587 12.5 28.5625 L 12.5 19.5 C 12.5 18.910914 12.910913 18.5 13.5 18.5 L 34.5 18.5 C 35.089091 18.5 35.5 18.910913 35.5 19.5 L 35.5 28.5625 C 35.5 29.151586 35.089087 29.5625 34.5 29.5625 L 29.5 29.5625 L 29.5 26.5 L 22.5 31.5 L 29.5 36.5 L 29.5 33.5625 L 34.5 33.5625 C 37.235898 33.5625 39.499998 31.298398 39.5 28.5625 L 39.5 19.5 C 39.5 16.764102 37.235899 14.5 34.5 14.5 L 13.5 14.5 z "
   sodipodi:type="inkscape:offset"
   fill="none"
   stroke="#ffffff"
   stroke-width="0.8"
   stroke-linecap="round"
   id="path150"
   style="fill:#000000;fill-opacity:1"
   d="m 13.5,15.40625 c -2.235918,0 -4.09375,1.857832 -4.09375,4.09375 v 9.0625 c 0,2.235918 1.857832,4.09375 4.09375,4.09375 h 4.09375 v -2.1875 H 13.5 c -1.010519,0 -1.90625,-0.895731 -1.90625,-1.90625 V 19.5 c 0,-1.010518 0.89573,-1.90625 1.90625,-1.90625 h 21 c 1.01052,0 1.90625,0.895735 1.90625,1.90625 v 9.0625 c 0,1.010518 -0.89573,1.90625 -1.90625,1.90625 h -5 A 0.90634063,0.90634063 0 0 1 28.59375,29.5625 V 28.261719 L 24.060547,31.5 28.59375,34.738281 V 33.5625 A 0.90634063,0.90634063 0 0 1 29.5,32.65625 h 5 c 2.235918,0 4.093748,-1.857831 4.09375,-4.09375 V 19.5 c 0,-2.235918 -1.857831,-4.09375 -4.09375,-4.09375 z" /><path
   inkscape:radius="-0.90625"
   inkscape:original="M 13.5 14.5 C 10.764102 14.5 8.5 16.764102 8.5 19.5 L 8.5 28.5625 C 8.5 31.298398 10.764102 33.5625 13.5 33.5625 L 18.5 33.5625 L 18.5 29.5625 L 13.5 29.5625 C 12.910913 29.5625 12.5 29.151587 12.5 28.5625 L 12.5 19.5 C 12.5 18.910914 12.910913 18.5 13.5 18.5 L 34.5 18.5 C 35.089091 18.5 35.5 18.910913 35.5 19.5 L 35.5 28.5625 C 35.5 29.151586 35.089087 29.5625 34.5 29.5625 L 29.5 29.5625 L 29.5 26.5 L 22.5 31.5 L 29.5 36.5 L 29.5 33.5625 L 34.5 33.5625 C 37.235898 33.5625 39.499998 31.298398 39.5 28.5625 L 39.5 19.5 C 39.5 16.764102 37.235899 14.5 34.5 14.5 L 13.5 14.5 z "
   sodipodi:type="inkscape:offset"
   fill="none"
   stroke="#ffffff"
   stroke-width="0.8"
   stroke-linecap="round"
   id="path152"
   style="fill:#000000;fill-opacity:1"
   d="m 13.5,15.40625 c -2.235918,0 -4.09375,1.857832 -4.09375,4.09375 v 9.0625 c 0,2.235918 1.857832,4.09375 4.09375,4.09375 h 4.09375 v -2.1875 H 13.5 c -1.010519,0 -1.90625,-0.895731 -1.90625,-1.90625 V 19.5 c 0,-1.010518 0.89573,-1.90625 1.90625,-1.90625 h 21 c 1.01052,0 1.90625,0.895735 1.90625,1.90625 v 9.0625 c 0,1.010518 -0.89573,1.90625 -1.90625,1.90625 h -5 A 0.90634063,0.90634063 0 0 1 28.59375,29.5625 V 28.261719 L 24.060547,31.5 28.59375,34.738281 V 33.5625 A 0.90634063,0.90634063 0 0 1 29.5,32.65625 h 5 c 2.235918,0 4.093748,-1.857831 4.09375,-4.09375 V 19.5 c 0,-2.235918 -1.857831,-4.09375 -4.09375,-4.09375 z" /><path
   inkscape:radius="-0.5"
   inkscape:original="M 13.5 14.5 C 10.764102 14.5 8.5 16.764102 8.5 19.5 L 8.5 28.5625 C 8.5 31.298398 10.764102 33.5625 13.5 33.5625 L 18.5 33.5625 L 18.5 29.5625 L 13.5 29.5625 C 12.910913 29.5625 12.5 29.151587 12.5 28.5625 L 12.5 19.5 C 12.5 18.910914 12.910913 18.5 13.5 18.5 L 34.5 18.5 C 35.089091 18.5 35.5 18.910913 35.5 19.5 L 35.5 28.5625 C 35.5 29.151586 35.089087 29.5625 34.5 29.5625 L 29.5 29.5625 L 29.5 26.5 L 22.5 31.5 L 29.5 36.5 L 29.5 33.5625 L 34.5 33.5625 C 37.235898 33.5625 39.499998 31.298398 39.5 28.5625 L 39.5 19.5 C 39.5 16.764102 37.235899 14.5 34.5 14.5 L 13.5 14.5 z "
   sodipodi:type="inkscape:offset"
   opacity="1"
   fill="url(#SVGID_15_)"
   enable-background="new    "
   id="path173"
   style="fill:#000000;fill-opacity:1;stroke-width:3;stroke-miterlimit:4;stroke-dasharray:none;stroke:#050000;stroke-opacity:1;opacity:1;stroke-linejoin:miter"
   d="M 13.5,15 C 11.039953,15 9,17.039953 9,19.5 v 9.0625 c 0,2.460047 2.039953,4.5 4.5,4.5 H 18 v -3 h -4.5 c -0.821601,0 -1.5,-0.678399 -1.5,-1.5 V 19.5 C 12,18.6784 12.678398,18 13.5,18 h 21 c 0.821603,0 1.5,0.678401 1.5,1.5 v 9.0625 c 0,0.8216 -0.678398,1.5 -1.5,1.5 h -5 a 0.50005,0.50005 0 0 1 -0.5,-0.5 V 27.470703 L 23.359375,31.5 29,35.529297 V 33.5625 a 0.50005,0.50005 0 0 1 0.5,-0.5 h 5 c 2.460047,0 4.499998,-2.039953 4.5,-4.5 V 19.5 C 39,17.039953 36.960048,15 34.5,15 Z" /><path
   inkscape:radius="-0.5"
   inkscape:original="M 13.5 14.5 C 10.764102 14.5 8.5 16.764102 8.5 19.5 L 8.5 28.5625 C 8.5 31.298398 10.764102 33.5625 13.5 33.5625 L 18.5 33.5625 L 18.5 29.5625 L 13.5 29.5625 C 12.910913 29.5625 12.5 29.151587 12.5 28.5625 L 12.5 19.5 C 12.5 18.910914 12.910913 18.5 13.5 18.5 L 34.5 18.5 C 35.089091 18.5 35.5 18.910913 35.5 19.5 L 35.5 28.5625 C 35.5 29.151586 35.089087 29.5625 34.5 29.5625 L 29.5 29.5625 L 29.5 26.5 L 22.5 31.5 L 29.5 36.5 L 29.5 33.5625 L 34.5 33.5625 C 37.235898 33.5625 39.499998 31.298398 39.5 28.5625 L 39.5 19.5 C 39.5 16.764102 37.235899 14.5 34.5 14.5 L 13.5 14.5 z "
   sodipodi:type="inkscape:offset"
   opacity="1"
   fill="url(#SVGID_16_)"
   enable-background="new    "
   id="path194"
   style="opacity:1;fill:#000000;fill-opacity:1;stroke:#000000;stroke-opacity:1;stroke-width:3;stroke-miterlimit:4;stroke-dasharray:none"
   d="M 13.5,15 C 11.039953,15 9,17.039953 9,19.5 v 9.0625 c 0,2.460047 2.039953,4.5 4.5,4.5 H 18 v -3 h -4.5 c -0.821601,0 -1.5,-0.678399 -1.5,-1.5 V 19.5 C 12,18.6784 12.678398,18 13.5,18 h 21 c 0.821603,0 1.5,0.678401 1.5,1.5 v 9.0625 c 0,0.8216 -0.678398,1.5 -1.5,1.5 h -5 a 0.50005,0.50005 0 0 1 -0.5,-0.5 V 27.470703 L 23.359375,31.5 29,35.529297 V 33.5625 a 0.50005,0.50005 0 0 1 0.5,-0.5 h 5 c 2.460047,0 4.499998,-2.039953 4.5,-4.5 V 19.5 C 39,17.039953 36.960048,15 34.5,15 Z" />
</svg>
