<?xml version="1.0" encoding="UTF-8" standalone="no"?>
<svg
   xmlns:dc="http://purl.org/dc/elements/1.1/"
   xmlns:cc="http://creativecommons.org/ns#"
   xmlns:rdf="http://www.w3.org/1999/02/22-rdf-syntax-ns#"
   xmlns:svg="http://www.w3.org/2000/svg"
   xmlns="http://www.w3.org/2000/svg"
   xmlns:sodipodi="http://sodipodi.sourceforge.net/DTD/sodipodi-0.dtd"
   xmlns:inkscape="http://www.inkscape.org/namespaces/inkscape"
   version="1.1"
   id="Layer_1"
   x="0px"
   y="0px"
   viewBox="0 0 518.53126 539.10139"
   xml:space="preserve"
   sodipodi:docname="stackviz.svg"
   inkscape:version="0.92.5 (2060ec1f9f, 2020-04-08)"
   width="518.53125"
   height="539.10138"><metadata
   id="metadata43"><rdf:RDF><cc:Work
       rdf:about=""><dc:format>image/svg+xml</dc:format><dc:type
         rdf:resource="http://purl.org/dc/dcmitype/StillImage" /><dc:title></dc:title></cc:Work></rdf:RDF></metadata><defs
   id="defs41" /><sodipodi:namedview
   pagecolor="#ffffff"
   bordercolor="#666666"
   borderopacity="1"
   objecttolerance="10"
   gridtolerance="10"
   guidetolerance="10"
   inkscape:pageopacity="0"
   inkscape:pageshadow="2"
   inkscape:window-width="1848"
   inkscape:window-height="1136"
   id="namedview39"
   showgrid="false"
   inkscape:zoom="0.83007328"
   inkscape:cx="40.837084"
   inkscape:cy="255.90349"
   inkscape:window-x="72"
   inkscape:window-y="27"
   inkscape:window-maximized="1"
   inkscape:current-layer="Layer_1"
   fit-margin-right="0.9"
   fit-margin-top="100"
   fit-margin-left="0"
   fit-margin-bottom="0" />
<path
   style="fill:none;stroke:#000000;stroke-width:17.8;stroke-miterlimit:4;stroke-dasharray:none;stroke-opacity:1"
   d="m 501.85913,109.0574 c -4.012,-0.793 -8.018,1.38 -9.548,5.171 l -39.929,98.955 -34.662,-36.981 c -2.075,-2.214 -5.174,-3.157 -8.129,-2.476 -2.957,0.682 -5.329,2.885 -6.226,5.784 l -48.352,156.29 -19.445,-24.206 c -1.536,-1.911 -3.82,-3.068 -6.27,-3.175 -2.45,-0.11 -4.826,0.846 -6.523,2.615 l -24.949,26.021 -38.003,-132.095 c -1.026,-3.566 -4.242,-6.058 -7.952,-6.16 -3.674,-0.091 -7.059,2.207 -8.28,5.711 l -42.893,123.001 -25.196,-17.328 c -1.923,-1.322 -4.304,-1.796 -6.59,-1.315 -2.284,0.483 -4.27,1.881 -5.494,3.869 l -40.625,65.993 -59.784003,-12.958 c -4.359,-0.945 -8.705,1.629 -9.973,5.903 L 9.2501265,519.2574 c -0.765,2.578 -0.268,5.365 1.3400005,7.52 1.609,2.154 4.14,3.424 6.827,3.424 H 497.98213 c 4.687,0 8.494,-3.786 8.52,-8.473 l 2.229,-404.264 c 0.023,-4.089 -2.862,-7.617 -6.872,-8.407 z"
   id="path2"
   inkscape:connector-curvature="0" />


<g
   id="g8"
   transform="translate(-1.3278735,27.196398)">
</g>
<g
   id="g10"
   transform="translate(-1.3278735,27.196398)">
</g>
<g
   id="g12"
   transform="translate(-1.3278735,27.196398)">
</g>
<g
   id="g14"
   transform="translate(-1.3278735,27.196398)">
</g>
<g
   id="g16"
   transform="translate(-1.3278735,27.196398)">
</g>
<g
   id="g18"
   transform="translate(-1.3278735,27.196398)">
</g>
<g
   id="g20"
   transform="translate(-1.3278735,27.196398)">
</g>
<g
   id="g22"
   transform="translate(-1.3278735,27.196398)">
</g>
<g
   id="g24"
   transform="translate(-1.3278735,27.196398)">
</g>
<g
   id="g26"
   transform="translate(-1.3278735,27.196398)">
</g>
<g
   id="g28"
   transform="translate(-1.3278735,27.196398)">
</g>
<g
   id="g30"
   transform="translate(-1.3278735,27.196398)">
</g>
<g
   id="g32"
   transform="translate(-1.3278735,27.196398)">
</g>
<g
   id="g34"
   transform="translate(-1.3278735,27.196398)">
</g>
<g
   id="g36"
   transform="translate(-1.3278735,27.196398)">
</g>
</svg>