<?xml version="1.0" encoding="UTF-8" standalone="no"?>
<svg
   xmlns:dc="http://purl.org/dc/elements/1.1/"
   xmlns:cc="http://creativecommons.org/ns#"
   xmlns:rdf="http://www.w3.org/1999/02/22-rdf-syntax-ns#"
   xmlns:svg="http://www.w3.org/2000/svg"
   xmlns="http://www.w3.org/2000/svg"
   xmlns:xlink="http://www.w3.org/1999/xlink"
   xmlns:sodipodi="http://sodipodi.sourceforge.net/DTD/sodipodi-0.dtd"
   xmlns:inkscape="http://www.inkscape.org/namespaces/inkscape"
   version="1.1"
   id="Layer_1"
   x="0px"
   y="0px"
   viewBox="0 0 512.003 512.003"
   style="enable-background:new 0 0 512.003 512.003;"
   xml:space="preserve"
   sodipodi:docname="toolconfig.svg"
   inkscape:version="0.92.5 (2060ec1f9f, 2020-04-08)"><metadata
   id="metadata43"><rdf:RDF><cc:Work
       rdf:about=""><dc:format>image/svg+xml</dc:format><dc:type
         rdf:resource="http://purl.org/dc/dcmitype/StillImage" /><dc:title></dc:title></cc:Work></rdf:RDF></metadata><defs
   id="defs41"><radialGradient
     gradientUnits="userSpaceOnUse"
     gradientTransform="matrix(1,0,0,0.315315,0,26.81305)"
     r="19.622213"
     fy="39.161163"
     fx="25.455845"
     cy="39.161163"
     cx="25.455845"
     id="radialGradient3262"
     xlink:href="#linearGradient3256" /><linearGradient
     id="linearGradient3256"><stop
       id="stop3258"
       offset="0"
       style="stop-color:#000000;stop-opacity:1;" /><stop
       id="stop3260"
       offset="1"
       style="stop-color:#000000;stop-opacity:0;" /></linearGradient><linearGradient
     gradientTransform="matrix(1.241935,0,0,1.241935,-5.027508,-7.208988)"
     y2="39.684914"
     x2="34.534348"
     y1="12.284524"
     x1="14.462892"
     gradientUnits="userSpaceOnUse"
     id="linearGradient3281"
     xlink:href="#linearGradient3264" /><linearGradient
     id="linearGradient3264"><stop
       id="stop3266"
       offset="0"
       style="stop-color:#c9c9c9;stop-opacity:1;" /><stop
       style="stop-color:#f8f8f8;stop-opacity:1;"
       offset="0.25"
       id="stop3276" /><stop
       style="stop-color:#e2e2e2;stop-opacity:1;"
       offset="0.5"
       id="stop3272" /><stop
       id="stop3274"
       offset="0.75"
       style="stop-color:#b0b0b0;stop-opacity:1;" /><stop
       id="stop3268"
       offset="1"
       style="stop-color:#c9c9c9;stop-opacity:1;" /></linearGradient></defs><sodipodi:namedview
   pagecolor="#ffffff"
   bordercolor="#666666"
   borderopacity="1"
   objecttolerance="10"
   gridtolerance="10"
   guidetolerance="10"
   inkscape:pageopacity="0"
   inkscape:pageshadow="2"
   inkscape:window-width="1848"
   inkscape:window-height="1136"
   id="namedview39"
   showgrid="false"
   inkscape:zoom="0.83007328"
   inkscape:cx="256.0015"
   inkscape:cy="256.0015"
   inkscape:window-x="72"
   inkscape:window-y="27"
   inkscape:window-maximized="1"
   inkscape:current-layer="Layer_1" />
<path
   style="fill:#F77935;"
   d="M503.187,81.861c-4.012-0.793-8.018,1.38-9.548,5.171l-39.929,98.955l-34.662-36.981  c-2.075-2.214-5.174-3.157-8.129-2.476c-2.957,0.682-5.329,2.885-6.226,5.784l-48.352,156.29l-19.445-24.206  c-1.536-1.911-3.82-3.068-6.27-3.175c-2.45-0.11-4.826,0.846-6.523,2.615l-24.949,26.021l-38.003-132.095  c-1.026-3.566-4.242-6.058-7.952-6.16c-3.674-0.091-7.059,2.207-8.28,5.711l-42.893,123.001l-25.196-17.328  c-1.923-1.322-4.304-1.796-6.59-1.315c-2.284,0.483-4.27,1.881-5.494,3.869l-40.625,65.993l-59.784-12.958  c-4.359-0.945-8.705,1.629-9.973,5.903L10.578,492.061c-0.765,2.578-0.268,5.365,1.34,7.52c1.609,2.154,4.14,3.424,6.827,3.424  H499.31c4.687,0,8.494-3.786,8.52-8.473l2.229-404.264C510.082,86.179,507.197,82.651,503.187,81.861z"
   id="path2" />


<g
   id="g8">
</g>
<g
   id="g10">
</g>
<g
   id="g12">
</g>
<g
   id="g14">
</g>
<g
   id="g16">
</g>
<g
   id="g18">
</g>
<g
   id="g20">
</g>
<g
   id="g22">
</g>
<g
   id="g24">
</g>
<g
   id="g26">
</g>
<g
   id="g28">
</g>
<g
   id="g30">
</g>
<g
   id="g32">
</g>
<g
   id="g34">
</g>
<g
   id="g36">
</g>
<g
   transform="matrix(7.5365445,0,0,7.4517263,134.63166,136.06701)"
   id="layer1"><path
     inkscape:connector-curvature="0"
     transform="translate(-0.883885,2.474874)"
     d="m 45.078058,39.161163 a 19.622213,6.187185 0 1 1 -39.2444265,0 19.622213,6.187185 0 1 1 39.2444265,0 z"
     id="path3254"
     style="color:#000000;display:inline;overflow:visible;visibility:visible;opacity:0.40909089;fill:url(#radialGradient3262);fill-opacity:1;fill-rule:nonzero;stroke:none;stroke-width:1;stroke-linecap:butt;stroke-linejoin:miter;stroke-miterlimit:4;stroke-dasharray:none;stroke-dashoffset:0;stroke-opacity:1;marker:none;marker-start:none;marker-mid:none;marker-end:none" /><path
     inkscape:connector-curvature="0"
     id="path3243"
     d="M 23.25,0.46875 C 22.784561,0.50059628 22.332166,0.57268469 21.875,0.625 H 21.84375 L 20.75,6.59375 C 18.967275,6.9997399 17.290091,7.6887415 15.78125,8.625 L 10.875,5.09375 C 9.5487118,6.1234406 8.3418016,7.3243453 7.28125,8.625 l 3.40625,4.96875 c -1.0342329,1.580515 -1.8119683,3.385224 -2.25,5.28125 -7.5e-5,0.009 -6.09e-5,0.02969 0,0.03125 L 2.5,19.84375 c -0.1085533,0.886633 -0.15625,1.802939 -0.15625,2.71875 10e-8,0.7493 0.020689,1.488589 0.09375,2.21875 l 5.9375,1.0625 c 0.422279,2.061892 1.2244587,3.987512 2.34375,5.6875 L 7.1875,36.375 c 1.0113261,1.255518 2.1788917,2.398616 3.4375,3.40625 l 5,-3.4375 c 1.747433,1.114717 3.698083,1.896374 5.8125,2.28125 l 0.9375,5.90625 c 0.666183,0.06064 1.349349,0.0625 2.03125,0.0625 0.962685,-10e-7 1.882237,-0.03648 2.8125,-0.15625 l 1.125,-6.03125 C 30.351311,37.906649 32.237219,37.03996 33.875,35.875 l 4.8125,3.5 c 1.248028,-1.061797 2.389277,-2.282256 3.375,-3.59375 l -3.5,-5.0625 c 0.947853,-1.63699 1.604629,-3.443141 1.9375,-5.375 l 5.90625,-0.9375 c 0.05179,-0.616346 0.0625,-1.214087 0.0625,-1.84375 0,-1.094214 -0.127182,-2.167084 -0.28125,-3.21875 l -6,-1.09375 C 39.717306,16.513776 38.945824,14.893898 37.96875,13.4375 L 41.5,8.59375 C 40.405427,7.2551429 39.156822,6.0185688 37.78125,4.96875 l -5.09375,3.5 C 31.223504,7.6029126 29.648037,6.9385679 27.9375,6.5625 L 27,0.625 C 26.146701,0.52462461 25.286379,0.46875 24.40625,0.46875 c -0.237872,10e-9 -0.482684,-0.007485 -0.71875,0 -0.115083,0.003649 -0.228966,-0.006695 -0.34375,0 -0.03109,0.001813 -0.06272,-0.002123 -0.09375,0 z m 0.8125,15.1875 c 0.114166,-0.0058 0.228152,0 0.34375,0 3.699127,0 6.71875,3.019624 6.71875,6.71875 1e-6,3.699126 -3.019624,6.6875 -6.71875,6.6875 -3.699125,1e-6 -6.6875,-2.988374 -6.6875,-6.6875 1e-6,-3.583527 2.8046,-6.539158 6.34375,-6.71875 z"
     style="color:#000000;display:inline;overflow:visible;visibility:visible;opacity:1;fill:url(#linearGradient3281);fill-opacity:1;fill-rule:nonzero;stroke:#808080;stroke-width:1;stroke-linecap:butt;stroke-linejoin:miter;stroke-miterlimit:4;stroke-dasharray:none;stroke-dashoffset:0;stroke-opacity:1;marker:none;marker-start:none;marker-mid:none;marker-end:none" /><path
     inkscape:connector-curvature="0"
     transform="matrix(0.606518,0,0,0.606518,10.15021,7.936835)"
     d="m 36.239223,23.781593 a 12.727922,12.727922 0 1 1 -25.455844,0 12.727922,12.727922 0 1 1 25.455844,0 z"
     id="path3283"
     style="color:#000000;display:inline;overflow:visible;visibility:visible;opacity:0.64772728;fill:none;fill-opacity:1;fill-rule:nonzero;stroke:#ffffff;stroke-width:1.64875567;stroke-linecap:butt;stroke-linejoin:miter;stroke-miterlimit:4;stroke-dasharray:none;stroke-dashoffset:0;stroke-opacity:1;marker:none;marker-start:none;marker-mid:none;marker-end:none" /><path
     inkscape:connector-curvature="0"
     style="color:#000000;display:inline;overflow:visible;visibility:visible;opacity:0.34659089;fill:none;fill-opacity:1;fill-rule:nonzero;stroke:#ffffff;stroke-width:0.9999997;stroke-linecap:butt;stroke-linejoin:miter;stroke-miterlimit:4;stroke-dasharray:none;stroke-dashoffset:0;stroke-opacity:1;marker:none;marker-start:none;marker-mid:none;marker-end:none"
     d="M 22.557788,1.6501132 21.679599,7.4291233 C 20.008601,7.8096689 16.934874,8.9735344 15.520595,9.8511162 L 10.848562,6.3639293 C 9.6053938,7.3290873 9.5201391,7.3945394 8.5260544,8.6136804 l 3.3780526,5.0099536 c -0.969415,1.481461 -2.1338039,4.121495 -2.5518734,6.008088 0,0 -5.9194088,0.997841 -5.9194088,0.997841 -0.1017499,0.831066 -0.05285,2.609798 0.015632,3.294198 l 5.6542436,1.018588 c 0.395814,1.932669 1.8770306,5.043588 2.9261736,6.637034 l -3.575576,4.724044 c 0.9479445,1.176832 1.1376642,1.284521 2.317393,2.229005 l 4.781168,-3.50282 c 1.637918,1.044855 4.889033,2.315886 6.870935,2.676641 l 0.784687,5.706254 c 0.624432,0.05684 2.349481,0.216281 3.221443,0.10402 l 0.878188,-5.940154 c 1.881743,-0.468289 5.13316,-1.80296 6.668298,-2.89491 l 4.776055,3.450808 c 1.169811,-0.995251 1.180292,-1.145216 2.104238,-2.374516 l -3.539198,-5.030701 c 0.888449,-1.534398 2.037228,-4.535223 2.349237,-6.346009 l 5.794642,-0.961463 c 0.04855,-0.577719 0.05091,-2.188789 -0.0935,-3.174545 L 39.463105,19.226449 C 39.022378,17.599038 37.509894,14.666467 36.594056,13.301345 L 40.346408,8.5773019 C 39.320436,7.3225876 38.938964,7.150431 37.649602,6.1664065 L 32.707289,9.7056032 C 31.335043,8.8940304 28.598675,7.6568558 26.995341,7.3043568 L 26.122266,1.6501132 c -0.799821,-0.094085 -3.107395,-0.052306 -3.564478,0 z"
     id="path3285" /></g></svg>