<?xml version="1.0" encoding="UTF-8" standalone="no"?>
<svg
   xmlns:dc="http://purl.org/dc/elements/1.1/"
   xmlns:cc="http://creativecommons.org/ns#"
   xmlns:rdf="http://www.w3.org/1999/02/22-rdf-syntax-ns#"
   xmlns:svg="http://www.w3.org/2000/svg"
   xmlns="http://www.w3.org/2000/svg"
   xmlns:xlink="http://www.w3.org/1999/xlink"
   xmlns:sodipodi="http://sodipodi.sourceforge.net/DTD/sodipodi-0.dtd"
   xmlns:inkscape="http://www.inkscape.org/namespaces/inkscape"
   id="svg97"
   height="48"
   width="48"
   version="1.0"
   sodipodi:docname="folder-csv.svg"
   inkscape:version="1.0.1 (3bc2e813f5, 2020-09-07)">
  <metadata
     id="metadata57">
    <rdf:RDF>
      <cc:Work
         rdf:about="">
        <dc:format>image/svg+xml</dc:format>
        <dc:type
           rdf:resource="http://purl.org/dc/dcmitype/StillImage" />
        <dc:title />
      </cc:Work>
    </rdf:RDF>
  </metadata>
  <sodipodi:namedview
     pagecolor="#ffffff"
     bordercolor="#666666"
     borderopacity="1"
     objecttolerance="10"
     gridtolerance="10"
     guidetolerance="10"
     inkscape:pageopacity="0"
     inkscape:pageshadow="2"
     inkscape:window-width="1920"
     inkscape:window-height="1018"
     id="namedview55"
     showgrid="false"
     inkscape:zoom="17.708333"
     inkscape:cx="24"
     inkscape:cy="24"
     inkscape:window-x="-8"
     inkscape:window-y="-8"
     inkscape:window-maximized="1"
     inkscape:current-layer="svg97"
     inkscape:document-rotation="0" />
  <defs
     id="defs3">
    <rect
       x="6.2682353"
       y="11.350588"
       width="41.392941"
       height="33.825882"
       id="rect890" />
    <radialGradient
       id="radialGradient6719"
       xlink:href="#linearGradient5060"
       gradientUnits="userSpaceOnUse"
       cy="486.65"
       cx="605.71"
       gradientTransform="matrix(-2.7744 0 0 1.9697 112.76 -872.89)"
       r="117.14" />
    <linearGradient
       id="linearGradient5060">
      <stop
         id="stop5062"
         offset="0" />
      <stop
         id="stop5064"
         stop-opacity="0"
         offset="1" />
    </linearGradient>
    <radialGradient
       id="radialGradient6717"
       xlink:href="#linearGradient5060"
       gradientUnits="userSpaceOnUse"
       cy="486.65"
       cx="605.71"
       gradientTransform="matrix(2.7744 0 0 1.9697 -1891.6 -872.89)"
       r="117.14" />
    <linearGradient
       id="linearGradient6715"
       y2="609.51"
       gradientUnits="userSpaceOnUse"
       x2="302.86"
       gradientTransform="matrix(2.7744 0 0 1.9697 -1892.2 -872.89)"
       y1="366.65"
       x1="302.86">
      <stop
         id="stop5050"
         stop-opacity="0"
         offset="0" />
      <stop
         id="stop5056"
         offset=".5" />
      <stop
         id="stop5052"
         stop-opacity="0"
         offset="1" />
    </linearGradient>
    <radialGradient
       id="radialGradient238"
       gradientUnits="userSpaceOnUse"
       cy="37.518"
       cx="20.706"
       gradientTransform="matrix(1.055 -.027345 .17770 1.1909 -3.5722 -7.1253)"
       r="30.905">
      <stop
         id="stop1790"
         stop-color="#202020"
         offset="0" />
      <stop
         id="stop1791"
         stop-color="#b9b9b9"
         offset="1" />
    </radialGradient>
    <linearGradient
       id="linearGradient491"
       y2="66.834"
       gradientUnits="userSpaceOnUse"
       x2="9.8981"
       gradientTransform="matrix(1.5168 0 0 .70898 -.87957 -1.3182)"
       y1="13.773"
       x1="6.2298">
      <stop
         id="stop3984"
         stop-color="#fff"
         stop-opacity=".87629"
         offset="0" />
      <stop
         id="stop3985"
         stop-color="#fffffe"
         stop-opacity="0"
         offset="1" />
    </linearGradient>
    <linearGradient
       id="linearGradient322"
       y2="46.689"
       gradientUnits="userSpaceOnUse"
       x2="12.854"
       gradientTransform="matrix(1.3175 0 0 .81626 -.87957 -1.3182)"
       y1="32.567"
       x1="13.036">
      <stop
         id="stop320"
         stop-color="#fff"
         offset="0" />
      <stop
         id="stop321"
         stop-color="#fff"
         stop-opacity="0"
         offset="1" />
    </linearGradient>
    <linearGradient
       id="linearGradient3104"
       y2="6.1803"
       gradientUnits="userSpaceOnUse"
       x2="15.515"
       y1="31.368"
       x1="18.113">
      <stop
         id="stop3098"
         stop-color="#424242"
         offset="0" />
      <stop
         id="stop3100"
         stop-color="#777"
         offset="1" />
    </linearGradient>
    <linearGradient
       id="linearGradient9772"
       y2="32.05"
       gradientUnits="userSpaceOnUse"
       x2="22.065"
       y1="36.988"
       x1="22.176">
      <stop
         id="stop9768"
         stop-color="#6194cb"
         offset="0" />
      <stop
         id="stop9770"
         stop-color="#729fcf"
         offset="1" />
    </linearGradient>
  </defs>
  <g
     id="layer1">
    <g
       id="g6707"
       transform="matrix(.022624 0 0 .020868 43.383 36.37)">
      <rect
         id="rect6709"
         opacity=".40206"
         height="478.36"
         width="1339.6"
         y="-150.7"
         x="-1559.3"
         fill="url(#linearGradient6715)" />
      <path
         id="path6711"
         opacity=".40206"
         d="m-219.62-150.68v478.33c142.88 0.9 345.4-107.17 345.4-239.2 0-132.02-159.44-239.13-345.4-239.13z"
         fill="url(#radialGradient6717)" />
      <path
         id="path6713"
         opacity=".40206"
         d="m-1559.3-150.68v478.33c-142.8 0.9-345.4-107.17-345.4-239.2 0-132.02 159.5-239.13 345.4-239.13z"
         fill="url(#radialGradient6719)" />
    </g>
    <path
       id="path216"
       stroke-linejoin="round"
       d="m4.5218 38.687c0.0218 0.417 0.4599 0.833 0.8762 0.833h31.327c0.416 0 0.811-0.416 0.789-0.833l-0.936-27.226c-0.022-0.417-0.46-0.833-0.877-0.833h-13.27c-0.486 0-1.235-0.316-1.402-1.1066l-0.612-2.893c-0.155-0.7357-0.882-1.0379-1.298-1.0379h-14.779c-0.4162 0-0.8107 0.4163-0.7889 0.8326l0.9707 32.264z"
       stroke="url(#linearGradient3104)"
       stroke-linecap="round"
       fill="url(#radialGradient238)" />
    <path
       id="path9788"
       opacity=".11364"
       stroke-linejoin="round"
       d="m5.2266 22.562h30.265"
       stroke="#000"
       stroke-linecap="round"
       fill="#729fcf" />
    <path
       id="path9784"
       opacity=".11364"
       stroke-linejoin="round"
       d="m5.0422 18.562h30.447"
       stroke="#000"
       stroke-linecap="round"
       fill="#729fcf" />
    <path
       id="path9778"
       opacity=".11364"
       stroke-linejoin="round"
       d="m4.9807 12.562h30.507"
       stroke="#000"
       stroke-linecap="round"
       fill="#729fcf" />
    <path
       id="path9798"
       opacity=".11364"
       stroke-linejoin="round"
       d="m5.3862 32.562h30.109"
       stroke="#000"
       stroke-linecap="round"
       fill="#729fcf" />
    <path
       id="path9800"
       opacity=".11364"
       stroke-linejoin="round"
       d="m5.5091 34.562h29.988"
       stroke="#000"
       stroke-linecap="round"
       fill="#729fcf" />
    <path
       id="path9782"
       opacity=".11364"
       stroke-linejoin="round"
       d="m5.0422 16.562h30.447"
       stroke="#000"
       stroke-linecap="round"
       fill="#729fcf" />
    <path
       id="path9780"
       opacity=".11364"
       stroke-linejoin="round"
       d="m5.0114 14.562h30.478"
       stroke="#000"
       stroke-linecap="round"
       fill="#729fcf" />
    <path
       id="path9776"
       opacity=".11364"
       stroke-linejoin="round"
       d="m4.9221 10.562h15.281"
       stroke="#000"
       stroke-linecap="round"
       fill="#729fcf" />
    <path
       id="path9774"
       opacity=".11364"
       stroke-linejoin="round"
       d="m4.8738 8.5625h14.783"
       stroke="#000"
       stroke-linecap="round"
       fill="#729fcf" />
    <path
       id="path9794"
       opacity=".11364"
       stroke-linejoin="round"
       d="m5.3247 28.562h30.169"
       stroke="#000"
       stroke-linecap="round"
       fill="#729fcf" />
    <path
       id="path9792"
       opacity=".11364"
       stroke-linejoin="round"
       d="m5.2881 26.562h30.205"
       stroke="#000"
       stroke-linecap="round"
       fill="#729fcf" />
    <path
       id="path9790"
       opacity=".11364"
       stroke-linejoin="round"
       d="m5.2266 24.562h30.265"
       stroke="#000"
       stroke-linecap="round"
       fill="#729fcf" />
    <path
       id="path9786"
       opacity=".11364"
       stroke-linejoin="round"
       d="m5.1959 20.562h30.296"
       stroke="#000"
       stroke-linecap="round"
       fill="#729fcf" />
    <path
       id="path9796"
       opacity=".11364"
       stroke-linejoin="round"
       d="m5.3247 30.562h30.169"
       stroke="#000"
       stroke-linecap="round"
       fill="#729fcf" />
    <path
       id="path9802"
       opacity=".11364"
       stroke-linejoin="round"
       d="m5.5091 36.562h29.988"
       stroke="#000"
       stroke-linecap="round"
       fill="#729fcf" />
    <path
       id="path219"
       opacity=".45143"
       d="m6.0683 38.864c0.0164 0.312-0.1809 0.52-0.4985 0.416-0.3177-0.104-0.5368-0.312-0.5531-0.624l-0.9477-32.065c-0.0164-0.3118 0.1651-0.5004 0.4774-0.5004l14.422-0.0477c0.313 0 0.932 0.3005 1.133 1.3222l0.574 2.8159c-0.427-0.4656-0.419-0.48-0.638-1.1571l-0.406-1.2592c-0.219-0.7276-0.698-0.8319-1.01-0.8319h-12.888c-0.3122 0-0.5095 0.2082-0.4931 0.5204l0.938 31.515-0.1096-0.104z"
       display="block"
       fill="url(#linearGradient491)" />
    <g
       id="g220"
       fill-opacity=".75706"
       transform="matrix(1.0408 0 .054493 1.0408 -8.6702 2.6706)"
       fill="#fff">
      <path
         id="path221"
         fill-opacity=".50847"
         fill="#fff"
         d="m42.417 8.5152c0.005-0.0971-0.128-0.247-0.235-0.247l-13.031-0.0021s0.911 0.5879 2.201 0.5962l11.054 0.071c0.011-0.2117 0.003-0.256 0.011-0.4181z" />
    </g>
    <path
       id="path233"
       stroke-linejoin="round"
       d="m39.784 39.511c1.143-0.044 1.963-1.097 2.047-2.321 0.791-11.549 1.659-21.232 1.659-21.232 0.072-0.248-0.168-0.495-0.48-0.495h-34.371c-0.0004 0-1.8507 21.867-1.8507 21.867-0.1145 0.982-0.466 1.804-1.5498 2.183l34.546-0.002z"
       display="block"
       stroke="#3465a4"
       fill="url(#linearGradient9772)" />
    <path
       id="path304"
       opacity=".46591"
       d="m9.6202 16.464l32.791 0.065-1.574 20.002c-0.084 1.071-0.45 1.428-1.872 1.428-1.872 0-28.678-0.032-31.395-0.032 0.2335-0.321 0.3337-0.989 0.335-1.005l1.7152-20.458z"
       stroke="url(#linearGradient322)"
       stroke-linecap="round"
       stroke-width="1px"
       fill="none" />
    <path
       id="path323"
       d="m9.6202 16.223l-1.1666 15.643s8.2964-4.148 18.666-4.148 15.555-11.495 15.555-11.495h-33.055z"
       fill-opacity=".089286"
       fill-rule="evenodd"
       fill="#fff" />
  </g>
  <g
     id="g1568"
     transform="translate(-1.2325444,-3.0736515)"
     style="fill:#000000;fill-opacity:1;stroke:#000000;stroke-opacity:1">
    <path
       d="m 16.507438,29.069749 1.768233,0.446615 q -0.555991,2.178389 -2.005212,3.326829 -1.440107,1.139325 -3.52735,1.139325 -2.160161,0 -3.5182356,-0.875002 Q 7.8759127,32.2234 7.1649739,30.555428 6.4631497,28.887457 6.4631497,26.973391 q 0,-2.087244 0.7929702,-3.636726 0.8020848,-1.558596 2.2695355,-2.360681 1.4765646,-0.811199 3.2447966,-0.811199 2.005212,0 3.372402,1.020835 1.36719,1.020835 1.904952,2.871099 l -1.740889,0.410157 q -0.464845,-1.458336 -1.348961,-2.123702 -0.884116,-0.665366 -2.223962,-0.665366 -1.540367,0 -2.579432,0.738283 -1.0299492,0.738282 -1.4492207,1.986982 -0.4192716,1.239586 -0.4192716,2.561203 0,1.70443 0.4921883,2.980474 0.5013034,1.266929 1.549482,1.895837 1.048179,0.628907 2.269535,0.628907 1.48568,0 2.51563,-0.856772 1.029949,-0.856773 1.394533,-2.542973 z"
       style="font-style:normal;font-variant:normal;font-weight:normal;font-stretch:normal;font-size:18.6667px;line-height:125%;font-family:Arial;-inkscape-font-specification:Arial;letter-spacing:0px;word-spacing:0px;white-space:pre;fill:#000000;fill-opacity:1;stroke:#000000;stroke-width:1px;stroke-linecap:butt;stroke-linejoin:miter;stroke-opacity:1"
       id="path2793" />
    <path
       d="m 19.852497,29.461676 1.667972,-0.145833 q 0.118489,1.002606 0.546876,1.649742 0.4375,0.638022 1.34896,1.039065 0.91146,0.391927 2.050785,0.391927 1.011721,0 1.786462,-0.300781 0.774741,-0.300782 1.148439,-0.820314 0.382814,-0.528647 0.382814,-1.14844 0,-0.628907 -0.364584,-1.093752 -0.364584,-0.473959 -1.203128,-0.79297 -0.537761,-0.209636 -2.37891,-0.647137 -1.841149,-0.446615 -2.579432,-0.838543 -0.957033,-0.501303 -1.430992,-1.239585 -0.464845,-0.747398 -0.464845,-1.667972 0,-1.011721 0.57422,-1.886722 0.57422,-0.884116 1.677087,-1.339846 1.102866,-0.45573 2.451827,-0.45573 1.48568,0 2.61589,0.483073 1.139325,0.47396 1.750003,1.403649 0.610678,0.929689 0.656251,2.105472 l -1.695315,0.127605 q -0.136719,-1.26693 -0.929689,-1.914066 -0.783856,-0.647137 -2.324223,-0.647137 -1.60417,0 -2.342452,0.592449 -0.729168,0.583334 -0.729168,1.412763 0,0.720053 0.519532,1.184898 0.510417,0.464845 2.661463,0.957033 2.16016,0.483074 2.962245,0.847658 1.166669,0.537761 1.722659,1.36719 0.555991,0.820314 0.555991,1.895837 0,1.066408 -0.610678,2.014326 -0.610679,0.938804 -1.759118,1.467451 -1.139325,0.519532 -2.570317,0.519532 -1.813806,0 -3.044277,-0.528647 -1.221356,-0.528647 -1.92318,-1.58594 -0.69271,-1.066409 -0.729168,-2.406255 z"
       style="font-style:normal;font-variant:normal;font-weight:normal;font-stretch:normal;font-size:18.6667px;line-height:125%;font-family:Arial;-inkscape-font-specification:Arial;letter-spacing:0px;word-spacing:0px;white-space:pre;fill:#000000;fill-opacity:1;stroke:#000000;stroke-width:1px;stroke-linecap:butt;stroke-linejoin:miter;stroke-opacity:1"
       id="path2795" />
    <path
       d="M 36.723622,33.754653 31.546529,20.39265 h 1.914066 l 3.472663,9.707048 q 0.419271,1.166669 0.701824,2.187504 0.309896,-1.093752 0.720053,-2.187504 l 3.609382,-9.707048 h 1.804691 l -5.231781,13.362003 z"
       style="font-style:normal;font-variant:normal;font-weight:normal;font-stretch:normal;font-size:18.6667px;line-height:125%;font-family:Arial;-inkscape-font-specification:Arial;letter-spacing:0px;word-spacing:0px;white-space:pre;fill:#000000;fill-opacity:1;stroke:#000000;stroke-width:1px;stroke-linecap:butt;stroke-linejoin:miter;stroke-opacity:1"
       id="path2797" />
  </g>
</svg>
